/* XPM */
static char * icon_xpm[] = {
"16 16 51 1",
" 	c None",
".	c #257E73",
"+	c #D9F4F1",
"@	c #B5E9E3",
"#	c #AAE6DF",
"$	c #A9E6DF",
"%	c #9BE2D9",
"&	c #96E0D7",
"*	c #56CEBF",
"=	c #8ADDD3",
"-	c #6BD4C7",
";	c #CBF0EC",
">	c #7CD9CE",
",	c #42C8B8",
"'	c #9FE3DB",
")	c #99E1D8",
"!	c #94E0D7",
"~	c #91DFD6",
"{	c #48CABA",
"]	c #8BDDD3",
"^	c #6CD4C7",
"/	c #50CCBD",
"(	c #93E0D7",
"_	c #90DFD5",
":	c #88DCD2",
"<	c #85DCD1",
"[	c #7DD9CE",
"}	c #000000",
"|	c #5ED0C2",
"1	c #38BFAF",
"2	c #87DCD2",
"3	c #82DBD0",
"4	c #79D8CC",
"5	c #39C5B4",
"6	c #71D6CA",
"7	c #4FCCBD",
"8	c #3AC6B5",
"9	c #7AD8CD",
"0	c #77D8CC",
"a	c #6FD5C9",
"b	c #6ED5C8",
"c	c #39C3B2",
"d	c #37BDAD",
"e	c #67D3C6",
"f	c #64D2C5",
"g	c #61D1C3",
"h	c #39C2B1",
"i	c #63D2C5",
"j	c #60D1C3",
"k	c #5BCFC1",
"l	c #58CFC1",
" .....          ",
".+++++.         ",
".@@@@@+....     ",
".##$#$$++++.    ",
".%&%%*........  ",
".===-.;+++++++. ",
".>>>,.'%)!~{]]. ",
".^^/.&(_]:<,[.} ",
".||1.=23[>456.} ",
".78.[>906abc.}  ",
".d..abb-efgd.}  ",
"..hafigj|kl.}   ",
" ...........}   ",
"   }}}}}}}}}    ",
"                ",
"                "};
