/* XPM */
static char *cursor_zoom_out_mask[] = {
/* columns rows colors chars-per-pixel */
"32 32 2 1",
"  c black",
". c gray100",
/* pixels */
"................................",
"................................",
"................................",
"..........     .................",
"........         ...............",
".......           ..............",
"......             .............",
".....               ............",
".....               ............",
"....                 ...........",
"....                 ...........",
"....     .......     ...........",
"....                 ...........",
"....                 ...........",
".....               ............",
".....               ............",
"......               ...........",
".......               ..........",
"........               .........",
"..........     ..       ........",
"..................       .......",
"...................       ......",
"....................       .....",
".....................     ......",
"......................   .......",
"....................... ........",
"................................",
"................................",
"................................",
"................................",
"................................",
"................................"
};
