/* XPM */
static char *cursor_info_mask[] = {
/* width height num_colors chars_per_pixel */
"    32    32        2            1",
/* colors */
"` c #000000",
". c #ffffff",
/* pixels */
"................................",
"................................",
"................................",
"......```.......................",
"......`````.....................",
"......```````...................",
".......````````.................",
".......``````````...............",
".......````````````.............",
"........`````````````...........",
"........``````````````..........",
"........`````````````...........",
".........```````````............",
".........``````````.............",
"..........``````````............",
"..........```````````...........",
"..........````````````..........",
"...........````.```````.........",
".....````..```...```````........",
".....````...`.....```````.......",
".....````..........```````......",
"....`````...........```````.....",
"....`````............```````....",
"....`````.............```````...",
".....````..............`````....",
".....````...............```.....",
"...````````..............`......",
"...````````.....................",
"...````````.....................",
"................................",
"................................",
"................................"
};
