/* XPM */
static char *theme_xpm[] = {
/* columns rows colors chars-per-pixel */
"16 16 4 1",
"  c blue",
". c #808080",
"X c #C0C0C0",
"o c gray100",
/* pixels */
"................",
"................",
"..XXXXXXXXXXXX..",
"..XXXXXXXXXXXX..",
"..X        ooX..",
"..X        ooX..",
"..XXXX  oooooX..",
"..XXXX  oooooX..",
"..XXXX  ooXXXX..",
"..XXXX  ooXXXX..",
"..XXXX  ooXXXX..",
"..XXXX  ooXXXX..",
"..XXXX  ooXXXX..",
"..XXXXXoooXXXX..",
"................",
"................"
};
